<svg xmlns="http://www.w3.org/2000/svg" viewBox="0 0 150 49"><path fill="#1c2647" d="M59.35 20.97a24 24 0 0 0-.9-1.73c-.48-.83-.64-1.15-.91-1.75-2.08-4.6-2.27-9.43-2.44-14l.11-.09c.52.19 1.01 1.26 1.34 1.75l.1.15a72 72 0 0 1 2.91 4.85 45 45 0 0 0 5.15 7.78c1.03 1.17 3.03 3.46 5.47 3.46q.5 0 .98-.13l.16-.04V.28h-5.24l.11.29q.5 1.21 1.12 2.36c.37.71.76 1.46 1.06 2.2a31 31 0 0 1 1.83 9.81v.13q.1 1.3 0 2.61l-.03.07c-.06.03-.21.02-.64-.17-1.75-.82-5.34-6.85-6.63-8.94l-.23-.36q-.55-.95-1.03-1.93c-1.48-2.91-3.49-6.9-7.43-6.06l-.17.04v20.96h5.44l-.14-.3Zm33-8.17c.78-4.23-.73-9.65-5.85-11.59Q84.54.43 82.41.29h-7.55v20.99h7.55c6.19 0 9.23-4.57 9.94-8.48m-13.63 7.33V1.34h2.77q.91.02 1.75.36c4.3 1.58 5.94 6.37 5.28 11-.52 3.61-2.67 7.42-7.03 7.42h-2.78ZM15.9 11.16l.04-.09.03-.06q.5 1.45.98 3.07.72 2.68 1.86 5.21a3.7 3.7 0 0 0 3.12 2.27h.03a3.6 3.6 0 0 0 3.09-2.17L30.82.28h-4.64v.23a52 52 0 0 1-.58 12.61c-.45 2.8-1.3 4.92-2.02 5.38-.26.17-.37.24-.63.18a.6.6 0 0 1-.35-.22L16.23.28h-4.04l.04.26q.35 1.5.98 2.88.64 1.38.96 2.87c.37 2.34-.65 9.45-1.93 11.54-.33.53-.76.87-1.13.84s-.62-.37-.76-.65L4 .28H0l.12.3C1.26 3.4 2.23 6.37 3.17 9.23q1.4 4.4 3.07 8.7l.17.42c.48 1.28 1.05 2.72 2.79 3.08.77.21 1.6.1 2.29-.31 1.49-.85 2.47-4.02 3.34-6.83q.45-1.6 1.09-3.13m33.22-6.83c-1.87-3.08-4.99-4.61-8.77-4.3a8.8 8.8 0 0 0-6.55 3.59 12 12 0 0 0-2.2 7.01c-.03 4.84 2.63 10.3 8.54 10.87q.57.06 1.12.06a8.8 8.8 0 0 0 7.77-4.24c2.35-4 2.39-8.96.09-12.99M35.78 8.91c.17-2.1 1.28-7.25 4.6-7.75 1.28-.24 2.6.14 3.55 1.03 2.42 2.23 2.99 7.21 2.77 10.29-.14 2.01-1 5.32-3.16 7-.89.7-2.04.97-3.14.73-4.5-.81-4.84-8.49-4.62-11.3m74.8 11.83.09-.03 1.64-4.1-.55.31q-1.08.66-2.32.96c-3.07.67-11.67.23-13.05-2.48a1.5 1.5 0 0 1-.12-1.51c.31-.53 1.12-.88 2.23-.94 1.64-.1 2.99.42 4.57.93 1.77.56 3.59 1.14 5.4.87a3.2 3.2 0 0 0 2.79-2.19 2.6 2.6 0 0 0-1.07-2.61c-1.13-.8-3.21-1.25-5.4-1.71-2.66-.57-5.27-.73-5.99-2.04a1.45 1.45 0 0 1 0-1.64c1.09-1.48 6.08-1.28 8.19-.96q1.4.25 2.72.73.75.25 1.56.49l.33.08-.06-.33q.04-.7.35-1.33c.28-.76.55-1.48.26-1.89-.58-.8-6.23-1.32-6.69-1.34-1.11-.04-6.72-.15-9.01 2.18a3.2 3.2 0 0 0-.92 2.5c.19 2.97 4.5 3.78 8.3 4.49q2.12.32 4.15 1.02c.55.24 1.17.67 1.19.96q0 .13-.24.28c-.75.45-2.67-.16-4.09-.6q-.78-.27-1.59-.45c-3.33-.62-6.21.03-7.52 1.7-.68.87-1.25 2.4-.15 4.85 1.41 3.15 6.04 4.6 10.18 4.6a13 13 0 0 0 4.82-.8M142.37 8.5l-1.28-.07c-1.59-.04-3.48-.15-4.36-1.09a1.4 1.4 0 0 1-.39-1.1c.02-.62.31-1.2.8-1.58 1.8-1.48 5.83-1.32 7.64-1.02a15 15 0 0 1 2.8.82l1.04.37.23.07.79-3.36-.14-.08c-3.03-1.78-8.46-2.18-11.72.04-1.36.94-2.89 2.73-2.38 5.98.64 4.05 4.92 4.71 8.36 5.23q1.25.18 2.47.52c1.62.44 2.65 1.32 2.67 2.31.02.96-.91 1.85-2.42 2.33-2.42.75-5.03.59-7.35-.43-.14-.06-.53-.28-.93-.5-1.77-.99-1.98-1.06-2.16-.9l-.04.03-1.05 2.7v.06c-.1.96 3.45 2.22 3.48 2.22q1.61.46 3.29.46c1.98.04 3.93-.5 5.61-1.55a5.9 5.9 0 0 0 2.65-4.46c.37-3.95-2.33-6.45-7.59-7.02M36.64 27.76q-.28-.15-.6-.24-.3-.1-.62-.14-.28-.04-.55-.05a6 6 0 0 0-3.01.69 6 6 0 0 0-2.08 1.82 8 8 0 0 0-1.18 2.61q-.38 1.51-.38 3.07v13.1h3.47V35.19h3.06v-1.05h-3.06v-2q0-.76.08-1.51.05-.63.26-1.23.14-.45.45-.8a.8.8 0 0 1 .58-.26q.42.01.74.29.38.36.6.83.25.55.37 1.15.12.63.12 1.27v.24h.48l.6-1.25q.22-.53.55-1.14l.67-1.32.08-.14-.11-.12a2 2 0 0 0-.52-.39m100.57 20.02a40 40 0 0 0-2.42-3.34q-.59-.75-1.09-1.44l-1.07-1.48c-1.26-1.79-2.84-4.01-3.96-4.99a2.8 2.8 0 0 0-1.86-.75l10.53-8.12h-6.29v.22c.01.29.28.38.44.44l.24.13c.55.92-1.73 3.04-3.3 4.46q-1.65 1.43-3.42 2.7l-1.48 1.13v-9.09h-3.88V48.6h3.88V38.31q.47-.35 1.06-.34.48 0 .62.22l7.98 10.32.06.08h4.17l.04-.16a.6.6 0 0 0-.17-.58l-.08-.1Zm-68.3-19.95q.85 1.4 1.23 3c.83 3.82.39 14.55-3.23 16.4-1.93.85-3.3-.43-3.44-2.89-.26-4.41 2.87-7.94 2.24-12.2-.45-3.09-3.92-4.6-5.74-2.02-2.22 3.15-2.25 12.84-4.86 14.4-4.46 2.14-3.65-7.93-3.26-10.59.29-1.94 1.02-3.58 1.5-5.42-.94.16-3.17-1.32-3.89-.8-.8.57-1.51 6.93-1.57 8.2-.17 4.23.55 12.54 5.54 12.21 5.02-.33 4.87-11.34 6.62-15.5.33-.78 1.32-2.45 2.02-1.25.87 1.48-.97 5.63-1.29 7.35-1.22 6.6 1.58 12.19 7.79 9.37 5.38-2.45 6.79-13 4.59-18.54l-4.27-1.72Zm-45.34 7.9a5 5 0 0 0-1.94-1.41 6 6 0 0 0-2.42-.45q-1.23 0-2.36.45-1.14.47-1.96 1.41a7 7 0 0 0-1.32 2.36 11 11 0 0 0-.47 3.29q-.03 1.69.47 3.3.43 1.3 1.3 2.36.81.93 1.95 1.4 1.15.47 2.39.45 1.23 0 2.36-.45a5 5 0 0 0 1.97-1.41 7 7 0 0 0 1.3-2.36q.5-1.61.47-3.3.02-1.68-.46-3.29a7 7 0 0 0-1.27-2.36m-7.46 9.57a10 10 0 0 1-.14-2.25q.06-1.2.38-2.36.3-1.17.85-2.25.45-1.04 1.14-1.94.52-.7 1.25-1.16.38-.24.83-.25.16 0 .32.04c.39.1.72.36.9.72q.43.75.6 1.6.2.98.14 1.97v.28a12 12 0 0 1-1.23 4.63q-.45 1.04-1.14 1.94-.5.7-1.25 1.14-.51.32-1.12.21a1.6 1.6 0 0 1-.92-.73 5 5 0 0 1-.6-1.59m78.25-13.52c-1.87-3.08-4.99-4.61-8.76-4.3a8.8 8.8 0 0 0-6.55 3.59 12 12 0 0 0-2.2 7.01c-.03 4.84 2.62 10.3 8.53 10.87q.58.06 1.12.06a8.8 8.8 0 0 0 7.77-4.24c2.35-4 2.39-8.96.09-12.99m-13.36 4.57c.17-2.1 1.28-7.25 4.6-7.75 1.28-.24 2.6.14 3.55 1.03 2.41 2.23 2.99 7.21 2.77 10.29-.14 2.01-1.01 5.32-3.16 7-.89.7-2.04.97-3.14.73-4.5-.82-4.84-8.49-4.62-11.3m29.77-6.7c.63.61.91 1.49.78 2.36a5.6 5.6 0 0 1-2.56 3.65q-.74.46-1.55.81c-1.52.72-3.24 1.54-3.15 2.75.08 1.09 2.23 4.19 2.88 5.06q1.4 1.93 3.09 3.63.53.5 1.23.67h5.56l-2.27-1.39a52 52 0 0 1-5.28-5.97l-.11-.15c-1.86-2.54-2.01-3.23-1.95-3.4q1.4-.73 2.9-1.21.96-.33 1.89-.74c2.79-1.46 3.86-3.76 2.78-6.03a4.2 4.2 0 0 0-2.95-2.09H98.89v20.99h3.87V28.62h6.03a4.4 4.4 0 0 1 2.01 1.03M127.4 2.3c.63.61.91 1.49.78 2.36a5.6 5.6 0 0 1-2.56 3.65q-.75.47-1.55.81c-1.52.72-3.24 1.54-3.15 2.75.08 1.09 2.22 4.19 2.88 5.06q1.4 1.94 3.09 3.63.53.5 1.23.67h5.56l-2.27-1.4a53 53 0 0 1-5.29-5.97l-.11-.15c-1.85-2.54-2.01-3.23-1.95-3.4q1.4-.73 2.9-1.21a23 23 0 0 0 1.89-.74c2.79-1.46 3.86-3.76 2.78-6.03a4.2 4.2 0 0 0-2.95-2.09h-13.19v20.99h3.87V1.28h6.03q1.14.24 2 1.03"/></svg>
